Coordinates
version=1
nRows=12
nColumns=34
inDegrees=no

Units are S.I. units (second, meters, Newtons, ...)
If the header above contains a line with 'inDegrees', this indicates whether rotational values are in degrees (yes) or radians (no).

endheader
time	pelvis_tilt	pelvis_list	pelvis_rotation	pelvis_tx	pelvis_ty	pelvis_tz	hip_flexion_r	hip_adduction_r	hip_rotation_r	knee_angle_r	ankle_angle_r	subtalar_angle_r	mtp_angle_r	hip_flexion_l	hip_adduction_l	hip_rotation_l	knee_angle_l	ankle_angle_l	subtalar_angle_l	mtp_angle_l	lumbar_extension	lumbar_bending	lumbar_rotation	arm_flex_r	arm_add_r	arm_rot_r	elbow_flex_r	pro_sup_r	arm_flex_l	arm_add_l	arm_rot_l	elbow_flex_l	pro_sup_l
3.3	-0.246884	-0.069372	-0.009546	-0.261731	0.863626	-0.524511	0.709902	0.0521343	-0.139081	0.712845	0.408116	-0.0698961	-0.0215932	0.755891	-0.349221	-0.0927128	0.744684	0.318235	0.135528	-0.0215933	-0.295182	0.182996	0.0618413	1.20867	-0.373352	0.368559	1.31141	1.72934	1.05896	-0.271796	0.189308	1.3335	1.65839
3.31	-0.259021	-0.0707434	-0.00657538	-0.265704	0.858556	-0.52487	0.740927	0.051179	-0.137285	0.737042	0.411644	-0.0811796	-0.0215932	0.787759	-0.348621	-0.0826009	0.765255	0.323599	0.132664	-0.0215933	-0.299955	0.185205	0.0635089	1.23486	-0.375867	0.377461	1.31234	1.72806	1.08364	-0.273499	0.195954	1.33677	1.66361
3.32	-0.271039	-0.0726849	-0.00377749	-0.269674	0.853352	-0.525158	0.771655	0.0509623	-0.135512	0.76077	0.414875	-0.0927397	-0.0215932	0.82	-0.348405	-0.0719807	0.786356	0.328725	0.129879	-0.0215933	-0.304986	0.187695	0.0656015	1.2611	-0.37806	0.385693	1.31308	1.72691	1.10883	-0.274871	0.202447	1.33953	1.66918
3.33	-0.282883	-0.0749596	-0.00113995	-0.273628	0.848024	-0.525371	0.802109	0.0511473	-0.13388	0.784204	0.417984	-0.104145	-0.0215932	0.852443	-0.348328	-0.0610031	0.807901	0.333585	0.127068	-0.0215933	-0.310258	0.190127	0.0681411	1.28721	-0.380116	0.393153	1.31375	1.72584	1.13465	-0.275763	0.209004	1.34164	1.67447
3.34	-0.294545	-0.0773073	0.00134903	-0.277557	0.842576	-0.525513	0.832362	0.0513782	-0.132454	0.807525	0.421134	-0.114978	-0.0215932	0.884911	-0.348123	-0.0498586	0.829751	0.338184	0.124115	-0.0215933	-0.315704	0.192188	0.0710845	1.31311	-0.382179	0.399878	1.3144	1.7248	1.16112	-0.276088	0.215781	1.34307	1.67885
3.35	-0.306069	-0.079483	0.0036967	-0.281451	0.837013	-0.525593	0.862523	0.0513346	-0.131249	0.830879	0.424454	-0.124887	-0.0215932	0.917265	-0.347548	-0.0387463	0.851742	0.342551	0.120902	-0.0215933	-0.321204	0.193635	0.074323	1.33878	-0.38432	0.406051	1.31502	1.72381	1.1882	-0.275856	0.222841	1.34383	1.6819
3.36	-0.317548	-0.0812888	0.00589969	-0.285302	0.831334	-0.525621	0.892729	0.0507779	-0.130239	0.854366	0.428036	-0.133624	-0.0215932	0.949418	-0.346421	-0.02785	0.873709	0.346726	0.117339	-0.0215933	-0.326597	0.194332	0.0776967	1.36427	-0.386508	0.411962	1.31556	1.72292	1.21575	-0.275191	0.230151	1.34404	1.6834
3.37	-0.329098	-0.0825971	0.00793524	-0.289103	0.825536	-0.525609	0.923113	0.049588	-0.12937	0.878023	0.431923	-0.14107	-0.0215932	0.981345	-0.344665	-0.0173238	0.895518	0.350757	0.113394	-0.0215933	-0.331712	0.19425	0.0810231	1.3897	-0.388591	0.417946	1.31588	1.72228	1.24359	-0.274335	0.23762	1.34386	1.68334
3.38	-0.340821	-0.0833679	0.00975565	-0.292851	0.819618	-0.525567	0.953764	0.0477863	-0.128576	0.901824	0.436111	-0.147236	-0.0215932	1.01306	-0.342328	-0.00728064	0.917079	0.354699	0.109117	-0.0215933	-0.336413	0.193463	0.0841426	1.4152	-0.390333	0.424316	1.31583	1.7221	1.27158	-0.273612	0.245145	1.34351	1.68185
3.39	-0.352769	-0.0836598	0.0112907	-0.296542	0.813584	-0.525496	0.984695	0.0455382	-0.127795	0.92569	0.440549	-0.152264	-0.0215932	1.0446	-0.339586	0.00222216	0.938361	0.358616	0.104645	-0.0215933	-0.340643	0.192125	0.0869746	1.44092	-0.391491	0.431294	1.3153	1.72264	1.29961	-0.273334	0.252663	1.34313	1.67914
3.4	-0.364911	-0.0836239	0.0124618	-0.300172	0.807443	-0.525394	1.01582	0.0431203	-0.12699	0.949506	0.445145	-0.156403	-0.0215932	1.07597	-0.336716	0.0111941	0.959396	0.36259	0.100187	-0.0215933	-0.344455	0.190434	0.0895549	1.46696	-0.391928	0.438988	1.31423	1.72413	1.32773	-0.273708	0.260189	1.3428	1.67548
3.41	-0.377139	-0.083472	0.0132079	-0.303736	0.801209	-0.525254	1.04697	0.0408458	-0.126171	0.973153	0.449792	-0.159945	-0.0215932	1.10717	-0.334029	0.0197121	0.980257	0.366716	0.0959803	-0.0215933	-0.347991	0.188605	0.0920125	1.49337	-0.391655	0.447412	1.3127	1.72668	1.35605	-0.274796	0.2678	1.34246	1.67124
